<mxfile host="app.diagrams.net" modified="2024-05-05T03:21:50.511Z" agent="Mozilla/5.0 (Windows NT 10.0; Win64; x64) AppleWebKit/537.36 (KHTML, like Gecko) Chrome/124.0.0.0 Safari/537.36" etag="u2GgaavlI1YGZHUBJjeJ" version="24.3.1" type="github">
  <diagram id="C5RBs43oDa-KdzZeNtuy" name="Page-1">
    <mxGraphModel dx="1050" dy="522" grid="1" gridSize="10" guides="1" tooltips="1" connect="1" arrows="1" fold="1" page="1" pageScale="1" pageWidth="827" pageHeight="1169" math="0" shadow="0">
      <root>
        <mxCell id="WIyWlLk6GJQsqaUBKTNV-0" />
        <mxCell id="WIyWlLk6GJQsqaUBKTNV-1" parent="WIyWlLk6GJQsqaUBKTNV-0" />
        <mxCell id="6eODiN16hummIWTwu0lx-0" value="&lt;font style=&quot;font-size: 14px;&quot;&gt;Inicio&lt;/font&gt;" style="rounded=1;whiteSpace=wrap;html=1;fillColor=#f8cecc;strokeColor=#b85450;" vertex="1" parent="WIyWlLk6GJQsqaUBKTNV-1">
          <mxGeometry x="280" y="40" width="120" height="60" as="geometry" />
        </mxCell>
        <mxCell id="6eODiN16hummIWTwu0lx-7" style="edgeStyle=orthogonalEdgeStyle;rounded=0;orthogonalLoop=1;jettySize=auto;html=1;entryX=0.5;entryY=0;entryDx=0;entryDy=0;" edge="1" parent="WIyWlLk6GJQsqaUBKTNV-1" source="6eODiN16hummIWTwu0lx-1" target="6eODiN16hummIWTwu0lx-2">
          <mxGeometry relative="1" as="geometry" />
        </mxCell>
        <mxCell id="6eODiN16hummIWTwu0lx-1" value="Ingresa un numero" style="shape=parallelogram;perimeter=parallelogramPerimeter;whiteSpace=wrap;html=1;fixedSize=1;fillColor=#d0cee2;strokeColor=#56517e;" vertex="1" parent="WIyWlLk6GJQsqaUBKTNV-1">
          <mxGeometry x="280" y="160" width="120" height="60" as="geometry" />
        </mxCell>
        <mxCell id="6eODiN16hummIWTwu0lx-8" style="edgeStyle=orthogonalEdgeStyle;rounded=0;orthogonalLoop=1;jettySize=auto;html=1;entryX=0.5;entryY=0;entryDx=0;entryDy=0;exitX=0.497;exitY=0.88;exitDx=0;exitDy=0;exitPerimeter=0;" edge="1" parent="WIyWlLk6GJQsqaUBKTNV-1" source="6eODiN16hummIWTwu0lx-2" target="6eODiN16hummIWTwu0lx-3">
          <mxGeometry relative="1" as="geometry" />
        </mxCell>
        <mxCell id="6eODiN16hummIWTwu0lx-2" value="es_primo = True" style="shape=document;whiteSpace=wrap;html=1;boundedLbl=1;fillColor=#ffff88;strokeColor=#36393d;" vertex="1" parent="WIyWlLk6GJQsqaUBKTNV-1">
          <mxGeometry x="280" y="270" width="120" height="80" as="geometry" />
        </mxCell>
        <mxCell id="6eODiN16hummIWTwu0lx-9" style="edgeStyle=orthogonalEdgeStyle;rounded=0;orthogonalLoop=1;jettySize=auto;html=1;entryX=0.5;entryY=0;entryDx=0;entryDy=0;" edge="1" parent="WIyWlLk6GJQsqaUBKTNV-1" source="6eODiN16hummIWTwu0lx-3" target="6eODiN16hummIWTwu0lx-4">
          <mxGeometry relative="1" as="geometry" />
        </mxCell>
        <mxCell id="6eODiN16hummIWTwu0lx-14" style="edgeStyle=orthogonalEdgeStyle;rounded=0;orthogonalLoop=1;jettySize=auto;html=1;" edge="1" parent="WIyWlLk6GJQsqaUBKTNV-1">
          <mxGeometry relative="1" as="geometry">
            <mxPoint x="490" y="489.5" as="targetPoint" />
            <mxPoint x="390" y="439.5" as="sourcePoint" />
          </mxGeometry>
        </mxCell>
        <mxCell id="6eODiN16hummIWTwu0lx-3" value="num &amp;lt; 2" style="rhombus;whiteSpace=wrap;html=1;fillColor=#cce5ff;strokeColor=#36393d;" vertex="1" parent="WIyWlLk6GJQsqaUBKTNV-1">
          <mxGeometry x="290" y="390" width="100" height="100" as="geometry" />
        </mxCell>
        <mxCell id="6eODiN16hummIWTwu0lx-13" value="" style="edgeStyle=orthogonalEdgeStyle;rounded=0;orthogonalLoop=1;jettySize=auto;html=1;" edge="1" parent="WIyWlLk6GJQsqaUBKTNV-1" target="6eODiN16hummIWTwu0lx-5">
          <mxGeometry relative="1" as="geometry">
            <mxPoint x="340" y="620" as="sourcePoint" />
            <Array as="points">
              <mxPoint x="340" y="630" />
              <mxPoint x="340" y="630" />
            </Array>
          </mxGeometry>
        </mxCell>
        <mxCell id="6eODiN16hummIWTwu0lx-4" value="es_primo = False" style="shape=document;whiteSpace=wrap;html=1;boundedLbl=1;fillColor=#ffff88;strokeColor=#36393d;" vertex="1" parent="WIyWlLk6GJQsqaUBKTNV-1">
          <mxGeometry x="280" y="550" width="120" height="80" as="geometry" />
        </mxCell>
        <mxCell id="6eODiN16hummIWTwu0lx-5" value="&lt;font style=&quot;font-size: 14px;&quot;&gt;Fin&lt;/font&gt;" style="rounded=1;whiteSpace=wrap;html=1;fillColor=#f8cecc;strokeColor=#b85450;" vertex="1" parent="WIyWlLk6GJQsqaUBKTNV-1">
          <mxGeometry x="280" y="670" width="120" height="60" as="geometry" />
        </mxCell>
        <mxCell id="6eODiN16hummIWTwu0lx-6" value="" style="endArrow=classic;html=1;rounded=0;" edge="1" parent="WIyWlLk6GJQsqaUBKTNV-1">
          <mxGeometry width="50" height="50" relative="1" as="geometry">
            <mxPoint x="339.5" y="100" as="sourcePoint" />
            <mxPoint x="340" y="160" as="targetPoint" />
          </mxGeometry>
        </mxCell>
        <mxCell id="6eODiN16hummIWTwu0lx-15" value="" style="endArrow=classic;html=1;rounded=0;" edge="1" parent="WIyWlLk6GJQsqaUBKTNV-1">
          <mxGeometry width="50" height="50" relative="1" as="geometry">
            <mxPoint x="490" y="440" as="sourcePoint" />
            <mxPoint x="490" y="490" as="targetPoint" />
          </mxGeometry>
        </mxCell>
        <mxCell id="6eODiN16hummIWTwu0lx-18" style="edgeStyle=orthogonalEdgeStyle;rounded=0;orthogonalLoop=1;jettySize=auto;html=1;exitX=0.5;exitY=1;exitDx=0;exitDy=0;entryX=0.5;entryY=0;entryDx=0;entryDy=0;" edge="1" parent="WIyWlLk6GJQsqaUBKTNV-1" source="6eODiN16hummIWTwu0lx-16" target="6eODiN16hummIWTwu0lx-17">
          <mxGeometry relative="1" as="geometry" />
        </mxCell>
        <mxCell id="6eODiN16hummIWTwu0lx-16" value="i = 2" style="rounded=0;whiteSpace=wrap;html=1;fillColor=#cdeb8b;strokeColor=#36393d;" vertex="1" parent="WIyWlLk6GJQsqaUBKTNV-1">
          <mxGeometry x="430" y="490" width="120" height="60" as="geometry" />
        </mxCell>
        <mxCell id="6eODiN16hummIWTwu0lx-19" style="edgeStyle=orthogonalEdgeStyle;rounded=0;orthogonalLoop=1;jettySize=auto;html=1;exitX=1;exitY=0.5;exitDx=0;exitDy=0;entryX=0.5;entryY=0;entryDx=0;entryDy=0;" edge="1" parent="WIyWlLk6GJQsqaUBKTNV-1" source="6eODiN16hummIWTwu0lx-17" target="6eODiN16hummIWTwu0lx-28">
          <mxGeometry relative="1" as="geometry">
            <mxPoint x="640" y="650" as="targetPoint" />
          </mxGeometry>
        </mxCell>
        <mxCell id="6eODiN16hummIWTwu0lx-20" style="edgeStyle=orthogonalEdgeStyle;rounded=0;orthogonalLoop=1;jettySize=auto;html=1;exitX=0.5;exitY=1;exitDx=0;exitDy=0;" edge="1" parent="WIyWlLk6GJQsqaUBKTNV-1" source="6eODiN16hummIWTwu0lx-17">
          <mxGeometry relative="1" as="geometry">
            <mxPoint x="490" y="750" as="targetPoint" />
          </mxGeometry>
        </mxCell>
        <mxCell id="6eODiN16hummIWTwu0lx-17" value="i &amp;lt; num" style="rhombus;whiteSpace=wrap;html=1;fillColor=#cce5ff;strokeColor=#36393d;" vertex="1" parent="WIyWlLk6GJQsqaUBKTNV-1">
          <mxGeometry x="440" y="600" width="100" height="100" as="geometry" />
        </mxCell>
        <mxCell id="6eODiN16hummIWTwu0lx-22" style="edgeStyle=orthogonalEdgeStyle;rounded=0;orthogonalLoop=1;jettySize=auto;html=1;exitX=0.5;exitY=1;exitDx=0;exitDy=0;" edge="1" parent="WIyWlLk6GJQsqaUBKTNV-1" source="6eODiN16hummIWTwu0lx-21">
          <mxGeometry relative="1" as="geometry">
            <mxPoint x="490" y="890" as="targetPoint" />
          </mxGeometry>
        </mxCell>
        <mxCell id="6eODiN16hummIWTwu0lx-27" style="edgeStyle=orthogonalEdgeStyle;rounded=0;orthogonalLoop=1;jettySize=auto;html=1;exitX=1;exitY=0.5;exitDx=0;exitDy=0;entryX=0.5;entryY=0;entryDx=0;entryDy=0;" edge="1" parent="WIyWlLk6GJQsqaUBKTNV-1" source="6eODiN16hummIWTwu0lx-21" target="6eODiN16hummIWTwu0lx-29">
          <mxGeometry relative="1" as="geometry">
            <mxPoint x="640" y="800" as="targetPoint" />
          </mxGeometry>
        </mxCell>
        <mxCell id="6eODiN16hummIWTwu0lx-21" value="num % i == 0" style="rhombus;whiteSpace=wrap;html=1;fillColor=#cce5ff;strokeColor=#36393d;" vertex="1" parent="WIyWlLk6GJQsqaUBKTNV-1">
          <mxGeometry x="440" y="750" width="100" height="100" as="geometry" />
        </mxCell>
        <mxCell id="6eODiN16hummIWTwu0lx-23" value="es_primo = False" style="shape=document;whiteSpace=wrap;html=1;boundedLbl=1;fillColor=#ffff88;strokeColor=#36393d;" vertex="1" parent="WIyWlLk6GJQsqaUBKTNV-1">
          <mxGeometry x="430" y="890" width="120" height="80" as="geometry" />
        </mxCell>
        <mxCell id="6eODiN16hummIWTwu0lx-25" value="" style="endArrow=classic;html=1;rounded=0;" edge="1" parent="WIyWlLk6GJQsqaUBKTNV-1">
          <mxGeometry width="50" height="50" relative="1" as="geometry">
            <mxPoint x="490" y="960" as="sourcePoint" />
            <mxPoint x="490" y="1020" as="targetPoint" />
          </mxGeometry>
        </mxCell>
        <mxCell id="6eODiN16hummIWTwu0lx-26" value="&lt;font style=&quot;font-size: 14px;&quot;&gt;Fin&lt;/font&gt;" style="rounded=1;whiteSpace=wrap;html=1;fillColor=#f8cecc;strokeColor=#b85450;" vertex="1" parent="WIyWlLk6GJQsqaUBKTNV-1">
          <mxGeometry x="430" y="1020" width="120" height="60" as="geometry" />
        </mxCell>
        <mxCell id="6eODiN16hummIWTwu0lx-28" value="&lt;font style=&quot;font-size: 14px;&quot;&gt;Fin&lt;/font&gt;" style="rounded=1;whiteSpace=wrap;html=1;fillColor=#f8cecc;strokeColor=#b85450;" vertex="1" parent="WIyWlLk6GJQsqaUBKTNV-1">
          <mxGeometry x="580" y="690" width="120" height="60" as="geometry" />
        </mxCell>
        <mxCell id="6eODiN16hummIWTwu0lx-31" style="edgeStyle=orthogonalEdgeStyle;rounded=0;orthogonalLoop=1;jettySize=auto;html=1;exitX=0.5;exitY=1;exitDx=0;exitDy=0;" edge="1" parent="WIyWlLk6GJQsqaUBKTNV-1" source="6eODiN16hummIWTwu0lx-29">
          <mxGeometry relative="1" as="geometry">
            <mxPoint x="490" y="580" as="targetPoint" />
            <Array as="points">
              <mxPoint x="640" y="920" />
              <mxPoint x="740" y="920" />
              <mxPoint x="740" y="580" />
              <mxPoint x="550" y="580" />
            </Array>
          </mxGeometry>
        </mxCell>
        <mxCell id="6eODiN16hummIWTwu0lx-29" value="i += 1" style="rounded=0;whiteSpace=wrap;html=1;fillColor=#cdeb8b;strokeColor=#36393d;" vertex="1" parent="WIyWlLk6GJQsqaUBKTNV-1">
          <mxGeometry x="580" y="840" width="120" height="60" as="geometry" />
        </mxCell>
      </root>
    </mxGraphModel>
  </diagram>
</mxfile>
